<?xml version="1.0" encoding="UTF-8"?>
<svg xmlns="http://www.w3.org/2000/svg" xmlns:xlink="http://www.w3.org/1999/xlink" width="160pt" height="56pt" viewBox="0 0 160 56" version="1.1">
<g id="surface1">
<path style=" stroke:none;fill-rule:nonzero;fill:rgb(0.392157%,17.647059%,41.960784%);fill-opacity:1;" d="M 46.199219 10.433594 L 155.140625 10.433594 L 155.140625 48.265625 L 46.199219 48.265625 Z M 46.199219 10.433594 "/>
<path style=" stroke:none;fill-rule:nonzero;fill:rgb(100%,100%,100%);fill-opacity:1;" d="M 126.65625 26.578125 C 126.78125 25.652344 127.097656 25.050781 128.027344 24.71875 C 129.972656 24.019531 131.480469 22.636719 132.832031 21.105469 C 133.300781 20.582031 133.777344 20.457031 134.460938 20.625 C 134.089844 21.707031 133.753906 22.777344 133.351562 23.824219 C 133.140625 24.363281 133.214844 24.5 133.804688 24.5 C 135.695312 24.496094 137.597656 24.519531 139.476562 24.289062 C 139.980469 24.230469 140.195312 24.425781 140.40625 24.808594 C 141.085938 26.050781 141.117188 27.417969 141.136719 28.773438 C 141.171875 30.703125 141.207031 32.644531 141.050781 34.582031 C 141.035156 34.746094 141.007812 34.929688 141.125 35.074219 C 141.257812 35.136719 141.3125 35.03125 141.371094 34.957031 C 142.5 33.425781 143.574219 31.851562 144.5625 30.21875 C 145.328125 28.9375 145.242188 28.410156 144.269531 27.539062 C 143.539062 26.894531 143.382812 26.324219 143.703125 25.464844 C 144 24.644531 144.796875 24.078125 145.65625 24.085938 C 146.496094 24.09375 147.167969 24.59375 147.457031 25.414062 C 147.789062 26.335938 147.503906 27.207031 147.175781 28.050781 C 146.480469 29.824219 145.363281 31.34375 144.320312 32.898438 C 142.109375 36.160156 139.761719 39.320312 136.96875 42.105469 C 136.074219 42.992188 135.082031 43.761719 133.894531 44.199219 C 132.371094 44.769531 131.039062 44.007812 130.890625 42.523438 C 130.800781 41.613281 131.386719 40.589844 132.195312 40.25 C 133.003906 39.914062 133.8125 40.167969 134.453125 40.925781 C 134.710938 41.230469 134.851562 41.796875 135.398438 41.59375 C 136.050781 41.34375 136.691406 40.960938 136.832031 40.210938 C 137.074219 38.894531 137.121094 37.558594 137.15625 36.226562 C 137.214844 33.882812 137.253906 31.546875 137.308594 29.207031 C 137.308594 28.953125 137.308594 28.703125 137.289062 28.449219 C 137.175781 26.828125 136.890625 26.566406 135.285156 26.566406 C 134.480469 26.566406 133.683594 26.578125 132.886719 26.5625 C 132.546875 26.558594 132.382812 26.648438 132.261719 27.011719 C 131.34375 29.792969 130.386719 32.574219 129.445312 35.347656 C 129.347656 35.621094 129.171875 35.984375 129.472656 36.160156 C 129.738281 36.320312 129.96875 35.988281 130.144531 35.800781 C 130.585938 35.320312 130.996094 34.820312 131.414062 34.320312 C 131.628906 34.078125 131.847656 33.863281 132.175781 34.085938 C 132.460938 34.289062 132.40625 34.582031 132.257812 34.828125 C 131.234375 36.527344 129.972656 37.941406 127.910156 38.332031 C 126.21875 38.65625 125.132812 37.644531 125.425781 35.957031 C 125.785156 33.890625 126.691406 31.992188 127.308594 30.011719 C 127.621094 29.007812 127.964844 28.015625 128.339844 27.03125 C 128.5 26.621094 128.375 26.550781 128.003906 26.5625 C 127.558594 26.59375 127.117188 26.578125 126.65625 26.578125 Z M 126.65625 26.578125 "/>
<path style=" stroke:none;fill-rule:nonzero;fill:rgb(100%,100%,100%);fill-opacity:1;" d="M 99.425781 18.726562 C 99.425781 18.730469 99.425781 18.730469 99.425781 18.738281 C 99.433594 18.738281 99.433594 18.738281 99.441406 18.738281 C 99.441406 18.730469 99.425781 18.726562 99.425781 18.726562 Z M 99.425781 18.726562 "/>
<path style=" stroke:none;fill-rule:nonzero;fill:rgb(100%,100%,100%);fill-opacity:1;" d="M 95.054688 20.285156 C 95.054688 20.285156 95.054688 20.28125 95.054688 20.28125 C 95.054688 20.28125 95.046875 20.28125 95.046875 20.28125 C 95.039062 20.28125 95.054688 20.285156 95.054688 20.285156 Z M 95.054688 20.285156 "/>
<path style=" stroke:none;fill-rule:nonzero;fill:rgb(100%,100%,100%);fill-opacity:1;" d="M 99.144531 20.035156 C 99.253906 19.609375 99.332031 19.171875 99.425781 18.738281 C 99.070312 18.820312 98.714844 18.480469 98.359375 18.742188 C 98.242188 18.363281 97.867188 18.578125 97.738281 18.488281 C 96.878906 17.9375 96.109375 18.335938 95.324219 18.597656 C 95.128906 18.664062 95.234375 19.007812 94.953125 18.996094 C 94.605469 18.023438 94.304688 17.699219 93.351562 17.515625 C 91.121094 17.089844 89.242188 17.878906 87.601562 19.347656 C 86.316406 20.5 85.433594 21.964844 84.550781 23.417969 C 84.089844 24.171875 83.445312 24.53125 82.566406 24.492188 C 81.816406 24.460938 81.070312 24.484375 80.328125 24.484375 C 80.105469 24.484375 79.894531 24.472656 79.8125 24.777344 C 79.640625 25.378906 79.433594 25.960938 79.214844 26.613281 C 80.636719 26.613281 82.003906 26.613281 83.375 26.613281 C 83.375 26.734375 83.394531 26.808594 83.375 26.875 C 81.921875 31.535156 80.457031 36.195312 78.988281 40.851562 C 78.742188 41.628906 78.375 42.335938 77.753906 42.882812 C 77.617188 43.003906 77.507812 43.277344 77.257812 43.085938 C 77.597656 42.101562 77.472656 41.429688 76.800781 41.113281 C 76.097656 40.777344 75.386719 40.871094 74.761719 41.332031 C 74.175781 41.75 73.949219 42.351562 74.113281 43.058594 C 74.292969 43.796875 74.828125 44.179688 75.542969 44.3125 C 76.808594 44.546875 78.03125 44.363281 79.175781 43.796875 C 81.367188 42.714844 82.578125 40.757812 83.519531 38.609375 C 85.019531 35.179688 85.9375 31.550781 87.0625 27.992188 C 87.484375 26.648438 87.46875 26.648438 88.867188 26.621094 C 89.109375 26.613281 89.417969 26.753906 89.535156 26.34375 C 89.710938 25.75 89.941406 25.167969 90.175781 24.484375 C 89.472656 24.484375 88.84375 24.484375 88.152344 24.484375 C 88.832031 22.480469 89.523438 20.605469 90.996094 19.144531 C 91.28125 18.855469 91.609375 18.632812 91.992188 18.511719 C 92.109375 18.46875 92.257812 18.445312 92.324219 18.570312 C 92.359375 18.632812 92.324219 18.765625 92.28125 18.847656 C 92.183594 19.050781 92.046875 19.234375 91.964844 19.449219 C 91.5625 20.542969 92.234375 21.445312 93.386719 21.375 C 94.085938 21.324219 94.53125 20.957031 94.773438 20.308594 C 94.339844 20.230469 93.765625 20.300781 94.070312 19.503906 C 94.390625 19.761719 95.007812 19.632812 95.046875 20.292969 C 95.121094 20.300781 95.207031 20.28125 95.257812 20.320312 C 95.5625 20.550781 95.960938 20.054688 96.207031 20.429688 C 96.472656 20.832031 96.417969 21.324219 96.410156 21.792969 C 97.113281 21.621094 97.824219 21.609375 98.527344 21.804688 C 98.644531 21.789062 98.769531 21.789062 98.796875 21.636719 C 98.777344 21.332031 98.898438 21.164062 99.21875 21.191406 C 99.300781 21.046875 99.394531 20.90625 99.480469 20.769531 C 99.125 20.625 99.058594 20.378906 99.144531 20.035156 Z M 77.1875 43.195312 C 77.203125 43.167969 77.222656 43.140625 77.238281 43.105469 C 77.242188 43.140625 77.25 43.160156 77.257812 43.1875 C 77.230469 43.195312 77.207031 43.195312 77.1875 43.195312 Z M 95.707031 19.433594 C 95.597656 19.476562 95.535156 19.394531 95.539062 19.292969 C 95.542969 19.242188 95.597656 19.15625 95.648438 19.144531 C 95.679688 19.128906 95.742188 19.199219 95.8125 19.242188 C 95.765625 19.320312 95.75 19.417969 95.707031 19.433594 Z M 95.707031 19.433594 "/>
<path style=" stroke:none;fill-rule:nonzero;fill:rgb(100%,100%,100%);fill-opacity:1;" d="M 106.3125 28.617188 C 107.210938 27.539062 108.046875 26.417969 109.117188 25.5 C 109.902344 24.816406 110.75 24.265625 111.800781 24.113281 C 112.996094 23.9375 113.878906 24.707031 113.957031 25.925781 C 114.019531 27.070312 113.597656 28.089844 113.238281 29.128906 C 112.574219 31.046875 111.886719 32.953125 111.222656 34.871094 C 111.136719 35.117188 110.984375 35.371094 111.136719 35.699219 C 111.625 35.472656 111.902344 35.046875 112.210938 34.660156 C 112.441406 34.371094 112.644531 34.046875 112.875 33.757812 C 113.074219 33.503906 113.359375 33.460938 113.601562 33.648438 C 113.820312 33.816406 113.847656 34.101562 113.699219 34.335938 C 112.785156 35.746094 111.835938 37.140625 110.226562 37.859375 C 109.855469 38.027344 109.480469 38.125 109.070312 38.144531 C 107.507812 38.207031 106.640625 37.199219 107.089844 35.683594 C 107.636719 33.835938 108.296875 32.019531 108.910156 30.195312 C 109.183594 29.390625 109.464844 28.589844 109.71875 27.773438 C 109.765625 27.625 109.910156 27.429688 109.738281 27.289062 C 109.554688 27.140625 109.359375 27.238281 109.183594 27.347656 C 108.53125 27.734375 108.027344 28.296875 107.535156 28.863281 C 105.496094 31.203125 104.050781 33.871094 103.320312 36.902344 C 103.113281 37.765625 102.722656 38.078125 101.855469 37.980469 C 101.117188 37.894531 100.355469 37.929688 99.617188 37.96875 C 99.042969 38.003906 99.015625 37.820312 99.183594 37.324219 C 100.242188 34.300781 101.277344 31.265625 102.3125 28.234375 C 102.460938 27.808594 102.578125 27.367188 102.675781 26.933594 C 102.851562 26.132812 102.703125 25.960938 101.886719 25.910156 C 101.71875 25.898438 101.550781 25.886719 101.386719 25.875 C 101.386719 25.171875 101.742188 24.882812 102.367188 24.808594 C 103.921875 24.621094 105.4375 24.167969 107.003906 24.078125 C 107.558594 24.042969 107.671875 24.1875 107.46875 24.734375 C 107.003906 25.976562 106.609375 27.246094 106.183594 28.511719 C 106.171875 28.597656 106.136719 28.765625 106.15625 28.773438 C 106.304688 28.820312 106.285156 28.691406 106.3125 28.617188 Z M 106.3125 28.617188 "/>
<path style=" stroke:none;fill-rule:nonzero;fill:rgb(100%,100%,100%);fill-opacity:1;" d="M 69.875 28.410156 C 70.78125 27.347656 71.621094 26.210938 72.714844 25.324219 C 73.382812 24.789062 74.097656 24.347656 74.949219 24.167969 C 76.425781 23.855469 77.457031 24.722656 77.398438 26.261719 C 77.367188 27.011719 77.144531 27.742188 76.894531 28.449219 C 76.097656 30.746094 75.300781 33.035156 74.503906 35.328125 C 74.476562 35.414062 74.464844 35.511719 74.410156 35.773438 C 75.125 35.394531 75.429688 34.828125 75.835938 34.355469 C 76.132812 34.019531 76.332031 33.226562 76.925781 33.652344 C 77.527344 34.082031 76.9375 34.597656 76.667969 34.996094 C 75.992188 36 75.246094 36.941406 74.179688 37.566406 C 73.945312 37.707031 73.707031 37.855469 73.453125 37.933594 C 72.574219 38.199219 71.683594 38.359375 70.910156 37.664062 C 70.152344 36.976562 70.324219 36.109375 70.597656 35.285156 C 71.371094 32.925781 72.191406 30.582031 72.976562 28.234375 C 73.078125 27.921875 73.449219 27.515625 73.09375 27.28125 C 72.761719 27.0625 72.398438 27.425781 72.125 27.683594 C 69.890625 29.832031 68.144531 32.296875 67.226562 35.308594 C 67 36.050781 66.71875 36.777344 66.507812 37.523438 C 66.40625 37.886719 66.21875 37.988281 65.867188 37.980469 C 64.898438 37.960938 63.921875 37.949219 62.953125 37.988281 C 62.40625 38.007812 62.414062 37.828125 62.570312 37.386719 C 63.605469 34.40625 64.625 31.421875 65.640625 28.433594 C 65.796875 27.957031 65.941406 27.476562 66.066406 26.992188 C 66.273438 26.1875 66.128906 25.996094 65.335938 25.910156 C 65.148438 25.886719 64.796875 26.058594 64.828125 25.695312 C 64.859375 25.414062 64.847656 25.019531 65.289062 24.941406 C 66.929688 24.648438 68.550781 24.257812 70.207031 24.109375 C 71.066406 24.03125 71.074219 24.078125 70.808594 24.867188 C 70.433594 25.984375 70.066406 27.097656 69.695312 28.214844 C 69.652344 28.332031 69.445312 28.433594 69.550781 28.546875 C 69.652344 28.652344 69.820312 28.59375 69.875 28.410156 Z M 69.875 28.410156 "/>
<path style=" stroke:none;fill-rule:nonzero;fill:rgb(100%,100%,100%);fill-opacity:1;" d="M 54.992188 25.839844 C 55.046875 25.082031 55.460938 24.835938 56.15625 24.757812 C 57.660156 24.582031 59.136719 24.195312 60.652344 24.085938 C 61.230469 24.046875 61.3125 24.199219 61.117188 24.746094 C 59.929688 28.152344 58.789062 31.570312 57.628906 34.984375 C 57.523438 35.292969 57.238281 35.734375 57.5625 35.921875 C 57.898438 36.109375 58.140625 35.625 58.359375 35.378906 C 58.78125 34.882812 59.164062 34.355469 59.566406 33.84375 C 59.746094 33.613281 59.972656 33.554688 60.230469 33.679688 C 60.472656 33.808594 60.515625 34.023438 60.386719 34.253906 C 59.328125 36.074219 58.175781 37.808594 55.957031 38.328125 C 54.285156 38.71875 53.109375 37.609375 53.441406 35.921875 C 53.800781 34.121094 54.578125 32.445312 55.140625 30.703125 C 55.511719 29.539062 55.933594 28.390625 56.296875 27.21875 C 56.632812 26.148438 56.445312 25.914062 55.355469 25.882812 C 55.222656 25.875 55.105469 25.851562 54.992188 25.839844 Z M 54.992188 25.839844 "/>
<path style=" stroke:none;fill-rule:nonzero;fill:rgb(100%,100%,100%);fill-opacity:1;" d="M 123.1875 24.039062 C 123.925781 23.933594 123.953125 24.214844 123.738281 24.832031 C 122.566406 28.183594 121.417969 31.550781 120.292969 34.925781 C 120.183594 35.246094 119.820312 35.714844 120.195312 35.925781 C 120.535156 36.113281 120.8125 35.605469 121.050781 35.335938 C 121.464844 34.867188 121.820312 34.347656 122.207031 33.859375 C 122.382812 33.636719 122.605469 33.546875 122.863281 33.675781 C 123.160156 33.824219 123.144531 34.117188 123.003906 34.328125 C 121.90625 36.078125 120.8125 37.855469 118.589844 38.328125 C 116.808594 38.707031 115.605469 37.472656 116.136719 35.703125 C 116.902344 33.167969 117.808594 30.671875 118.652344 28.152344 C 118.796875 27.722656 118.933594 27.296875 119.027344 26.855469 C 119.167969 26.183594 118.960938 25.9375 118.289062 25.871094 C 118.078125 25.847656 117.683594 26.0625 117.683594 25.703125 C 117.6875 25.378906 117.773438 24.929688 118.261719 24.851562 C 119.90625 24.582031 121.542969 24.304688 123.1875 24.039062 Z M 123.1875 24.039062 "/>
<path style=" stroke:none;fill-rule:nonzero;fill:rgb(100%,100%,100%);fill-opacity:1;" d="M 92.03125 25.847656 C 92.082031 25.140625 92.394531 24.84375 93.105469 24.761719 C 94.53125 24.609375 95.949219 24.320312 97.375 24.101562 C 97.667969 24.054688 97.96875 24.09375 98.335938 24.09375 C 97.660156 26.097656 97 28.035156 96.351562 29.980469 C 95.765625 31.707031 95.175781 33.441406 94.589844 35.167969 C 94.507812 35.429688 94.300781 35.789062 94.535156 35.929688 C 94.824219 36.109375 95.046875 35.734375 95.257812 35.53125 C 95.742188 35.058594 96.117188 34.496094 96.515625 33.945312 C 96.710938 33.679688 96.9375 33.488281 97.269531 33.707031 C 97.582031 33.910156 97.476562 34.179688 97.328125 34.425781 C 96.554688 35.691406 95.707031 36.898438 94.441406 37.734375 C 94.019531 38.007812 93.574219 38.207031 93.074219 38.3125 C 91.175781 38.714844 89.949219 37.460938 90.527344 35.578125 C 91.289062 33.113281 92.160156 30.691406 92.984375 28.242188 C 93.113281 27.867188 93.246094 27.488281 93.34375 27.097656 C 93.59375 26.179688 93.386719 25.890625 92.464844 25.871094 C 92.324219 25.875 92.179688 25.855469 92.03125 25.847656 Z M 92.03125 25.847656 "/>
<path style=" stroke:none;fill-rule:nonzero;fill:rgb(100%,100%,100%);fill-opacity:1;" d="M 63.355469 18.671875 C 63.34375 20.925781 61.554688 22.710938 59.300781 22.710938 C 57.023438 22.710938 55.25 20.894531 55.253906 18.578125 C 55.269531 16.308594 57.105469 14.511719 59.390625 14.535156 C 61.605469 14.554688 63.363281 16.390625 63.355469 18.671875 Z M 63.355469 18.671875 "/>
<path style=" stroke:none;fill-rule:nonzero;fill:rgb(100%,100%,100%);fill-opacity:1;" d="M 120.609375 19.746094 C 120.609375 18.445312 121.632812 17.394531 122.914062 17.382812 C 124.28125 17.367188 125.324219 18.417969 125.316406 19.792969 C 125.308594 21.152344 124.28125 22.164062 122.933594 22.136719 C 121.578125 22.125 120.609375 21.117188 120.609375 19.746094 Z M 120.609375 19.746094 "/>
<path style=" stroke:none;fill-rule:nonzero;fill:rgb(100%,100%,100%);fill-opacity:1;" d="M 94.769531 19.617188 C 94.769531 18.234375 95.863281 17.121094 97.226562 17.097656 C 98.679688 17.085938 99.796875 18.207031 99.785156 19.675781 C 99.777344 21.125 98.6875 22.195312 97.25 22.167969 C 95.808594 22.15625 94.761719 21.082031 94.769531 19.617188 Z M 94.769531 19.617188 "/>
<path style=" stroke:none;fill-rule:nonzero;fill:rgb(100%,100%,100%);fill-opacity:1;" d="M 99.441406 18.730469 C 99.082031 18.828125 98.722656 18.476562 98.359375 18.738281 C 98.242188 18.355469 97.867188 18.570312 97.738281 18.484375 C 96.878906 17.929688 96.109375 18.332031 95.324219 18.59375 C 95.734375 17.714844 96.488281 17.390625 97.382812 17.390625 C 98.316406 17.402344 99.035156 17.839844 99.441406 18.730469 Z M 99.441406 18.730469 "/>
<path style=" stroke:none;fill-rule:nonzero;fill:rgb(100%,100%,100%);fill-opacity:1;" d="M 95.039062 20.28125 C 95.117188 20.285156 95.207031 20.273438 95.257812 20.308594 C 95.5625 20.542969 95.960938 20.042969 96.207031 20.414062 C 96.472656 20.820312 96.417969 21.3125 96.410156 21.785156 C 96.339844 21.789062 96.269531 21.800781 96.203125 21.804688 C 95.507812 21.535156 95.195312 20.976562 95.039062 20.28125 Z M 95.039062 20.28125 "/>
<path style=" stroke:none;fill-rule:nonzero;fill:rgb(100%,100%,100%);fill-opacity:1;" d="M 96.410156 21.785156 C 97.113281 21.609375 97.824219 21.597656 98.527344 21.792969 C 97.847656 22.253906 97.136719 22.253906 96.410156 21.925781 C 96.410156 21.878906 96.410156 21.832031 96.410156 21.785156 Z M 96.410156 21.785156 "/>
<path style=" stroke:none;fill-rule:nonzero;fill:rgb(100%,100%,100%);fill-opacity:1;" d="M 99.480469 20.75 C 99.125 20.625 99.058594 20.371094 99.144531 20.035156 C 99.253906 19.601562 99.335938 19.164062 99.425781 18.726562 C 99.816406 19.394531 99.804688 20.070312 99.480469 20.75 Z M 99.480469 20.75 "/>
<path style=" stroke:none;fill-rule:nonzero;fill:rgb(100%,100%,100%);fill-opacity:1;" d="M 94.773438 20.308594 C 94.339844 20.222656 93.765625 20.292969 94.070312 19.496094 C 94.394531 19.757812 95.011719 19.625 95.046875 20.292969 C 94.953125 20.292969 94.867188 20.300781 94.773438 20.308594 Z M 94.773438 20.308594 "/>
<path style=" stroke:none;fill-rule:nonzero;fill:rgb(100%,100%,100%);fill-opacity:1;" d="M 98.796875 21.621094 C 98.777344 21.316406 98.898438 21.152344 99.21875 21.183594 C 99.125 21.375 98.976562 21.515625 98.796875 21.621094 Z M 98.796875 21.621094 "/>
<path style=" stroke:none;fill-rule:nonzero;fill:rgb(100%,100%,100%);fill-opacity:1;" d="M 96.410156 21.785156 C 96.410156 21.828125 96.410156 21.878906 96.410156 21.925781 C 96.339844 21.886719 96.265625 21.84375 96.199219 21.804688 C 96.269531 21.800781 96.339844 21.792969 96.410156 21.785156 Z M 96.410156 21.785156 "/>
<path style=" stroke:none;fill-rule:nonzero;fill:rgb(100%,100%,100%);fill-opacity:1;" d="M 95.808594 19.242188 C 95.765625 19.320312 95.75 19.414062 95.707031 19.429688 C 95.597656 19.46875 95.527344 19.390625 95.535156 19.285156 C 95.539062 19.234375 95.59375 19.15625 95.640625 19.136719 C 95.679688 19.128906 95.742188 19.199219 95.808594 19.242188 Z M 95.808594 19.242188 "/>
<path style=" stroke:none;fill-rule:nonzero;fill:rgb(100%,100%,100%);fill-opacity:1;" d="M 106.3125 28.617188 C 106.285156 28.691406 106.304688 28.828125 106.167969 28.777344 C 106.148438 28.773438 106.183594 28.605469 106.195312 28.511719 C 106.234375 28.546875 106.277344 28.582031 106.3125 28.617188 Z M 106.3125 28.617188 "/>
<path style=" stroke:none;fill-rule:nonzero;fill:rgb(100%,100%,100%);fill-opacity:1;" d="M 69.875 28.410156 C 69.820312 28.59375 69.660156 28.652344 69.5625 28.546875 C 69.457031 28.433594 69.667969 28.332031 69.707031 28.214844 C 69.757812 28.277344 69.816406 28.347656 69.875 28.410156 Z M 69.875 28.410156 "/>
<path style=" stroke:none;fill-rule:nonzero;fill:rgb(0.392157%,17.647059%,41.960784%);fill-opacity:1;" d="M 11.839844 11.957031 C 15.515625 11.957031 18.785156 14.441406 19.917969 17.988281 C 20.585938 20.074219 20.53125 22.125 19.832031 24.199219 C 19.1875 26.148438 18.824219 28.171875 18.597656 30.214844 C 18.355469 32.453125 18.675781 34.609375 19.371094 36.738281 C 19.832031 38.136719 20.195312 39.5625 20.386719 41.027344 C 20.683594 43.292969 20.394531 45.4375 19.148438 47.386719 C 17.878906 49.378906 15.996094 50.429688 13.726562 50.8125 C 11.828125 51.132812 9.980469 50.933594 8.242188 50.082031 C 6.609375 49.277344 5.367188 48.09375 4.914062 46.253906 C 4.5625 44.828125 4.777344 43.425781 5.304688 42.074219 C 6.097656 40.035156 7.496094 38.507812 9.257812 37.265625 C 10.839844 36.144531 12.484375 35.085938 13.925781 33.769531 C 15.007812 32.785156 15.820312 31.613281 16.066406 30.125 C 16.148438 29.640625 16.175781 29.15625 16.082031 28.679688 C 15.960938 28.078125 15.667969 27.59375 15.105469 27.289062 C 14.40625 26.910156 13.664062 26.628906 12.929688 26.335938 C 10.890625 25.542969 9.058594 24.417969 7.566406 22.785156 C 6.324219 21.414062 5.636719 19.792969 5.628906 17.921875 C 5.617188 15.457031 7.058594 13.339844 9.328125 12.433594 C 9.691406 12.289062 10.050781 12.183594 10.4375 12.105469 C 10.925781 11.992188 11.425781 11.949219 11.839844 11.957031 Z M 11.839844 11.957031 "/>
<path style=" stroke:none;fill-rule:nonzero;fill:rgb(0.392157%,17.647059%,41.960784%);fill-opacity:1;" d="M 23.164062 11.347656 C 23.199219 10.605469 23.273438 9.859375 23.410156 9.128906 C 23.441406 8.9375 23.5 8.949219 23.652344 8.988281 C 24.832031 9.335938 26.011719 9.671875 27.1875 9.996094 C 27.328125 10.039062 27.371094 10.074219 27.335938 10.222656 C 27.148438 11.070312 26.972656 11.90625 26.796875 12.75 C 26.765625 12.914062 26.726562 13.007812 26.488281 12.9375 C 25.511719 12.628906 24.527344 12.332031 23.535156 12.070312 C 23.242188 11.988281 23.101562 11.878906 23.164062 11.570312 C 23.183594 11.496094 23.164062 11.421875 23.164062 11.347656 Z M 23.164062 11.347656 "/>
<path style=" stroke:none;fill-rule:nonzero;fill:rgb(0.392157%,17.647059%,41.960784%);fill-opacity:1;" d="M 28.125 6.535156 C 27.941406 7.375 27.753906 8.214844 27.574219 9.058594 C 27.550781 9.164062 27.527344 9.191406 27.417969 9.15625 C 26.210938 8.824219 25.007812 8.503906 23.800781 8.183594 C 23.652344 8.140625 23.660156 8.058594 23.691406 7.949219 C 23.960938 7.070312 24.289062 6.222656 24.734375 5.421875 C 24.796875 5.316406 24.855469 5.285156 24.980469 5.324219 C 25.980469 5.667969 26.992188 6.003906 27.992188 6.335938 C 28.109375 6.367188 28.152344 6.417969 28.125 6.535156 Z M 28.125 6.535156 "/>
<path style=" stroke:none;fill-rule:nonzero;fill:rgb(0.392157%,17.647059%,41.960784%);fill-opacity:1;" d="M 23.171875 12.804688 C 24.265625 13.140625 25.332031 13.476562 26.390625 13.804688 C 26.503906 13.839844 26.558594 13.867188 26.523438 14.015625 C 26.328125 14.882812 26.148438 15.761719 25.972656 16.632812 C 25.9375 16.796875 25.878906 16.824219 25.722656 16.785156 C 24.996094 16.613281 24.324219 16.324219 23.675781 15.949219 C 23.582031 15.898438 23.554688 15.824219 23.535156 15.726562 C 23.339844 14.78125 23.242188 13.816406 23.171875 12.804688 Z M 23.171875 12.804688 "/>
<path style=" stroke:none;fill-rule:nonzero;fill:rgb(0.392157%,17.647059%,41.960784%);fill-opacity:1;" d="M 31.09375 11.21875 C 30.84375 12.148438 30.515625 13.007812 30.136719 13.851562 C 30.074219 13.988281 29.980469 13.964844 29.882812 13.933594 C 29.144531 13.71875 28.410156 13.488281 27.671875 13.277344 C 27.511719 13.230469 27.472656 13.164062 27.507812 13.015625 C 27.691406 12.15625 27.886719 11.289062 28.0625 10.433594 C 28.097656 10.257812 28.167969 10.273438 28.300781 10.3125 C 29.167969 10.5625 30.039062 10.804688 30.90625 11.054688 C 30.976562 11.074219 31.179688 11.039062 31.09375 11.21875 Z M 31.09375 11.21875 "/>
<path style=" stroke:none;fill-rule:nonzero;fill:rgb(0.392157%,17.647059%,41.960784%);fill-opacity:1;" d="M 31.578125 8.097656 C 31.554688 8.738281 31.476562 9.371094 31.375 10.011719 C 31.351562 10.144531 31.316406 10.203125 31.152344 10.164062 C 30.25 9.910156 29.347656 9.675781 28.445312 9.433594 C 28.320312 9.402344 28.289062 9.328125 28.320312 9.199219 C 28.488281 8.410156 28.65625 7.621094 28.820312 6.828125 C 28.859375 6.671875 28.921875 6.632812 29.074219 6.679688 C 29.851562 6.949219 30.628906 7.210938 31.410156 7.460938 C 31.535156 7.5 31.582031 7.558594 31.578125 7.679688 C 31.570312 7.824219 31.578125 7.957031 31.578125 8.097656 Z M 31.578125 8.097656 "/>
<path style=" stroke:none;fill-rule:nonzero;fill:rgb(0.392157%,17.647059%,41.960784%);fill-opacity:1;" d="M 24.144531 5.046875 C 23.816406 5.652344 23.535156 6.253906 23.300781 6.886719 C 23.199219 7.175781 23.09375 7.460938 23.011719 7.753906 C 22.972656 7.914062 22.914062 7.949219 22.757812 7.910156 C 22.054688 7.714844 21.347656 7.519531 20.648438 7.339844 C 20.460938 7.289062 20.445312 7.214844 20.511719 7.042969 C 20.851562 6.117188 21.363281 5.292969 22.023438 4.558594 C 22.117188 4.460938 22.191406 4.386719 22.34375 4.445312 C 22.933594 4.648438 23.527344 4.839844 24.144531 5.046875 Z M 24.144531 5.046875 "/>
<path style=" stroke:none;fill-rule:nonzero;fill:rgb(0.392157%,17.647059%,41.960784%);fill-opacity:1;" d="M 22.417969 11.726562 C 21.71875 11.519531 21.046875 11.3125 20.371094 11.117188 C 20.246094 11.082031 20.199219 11.019531 20.183594 10.90625 C 20.035156 10.011719 20.035156 9.101562 20.195312 8.207031 C 20.226562 8.027344 20.308594 8.027344 20.445312 8.066406 C 21.152344 8.277344 21.859375 8.484375 22.570312 8.679688 C 22.710938 8.71875 22.761719 8.773438 22.734375 8.917969 C 22.542969 9.828125 22.453125 10.757812 22.417969 11.726562 Z M 22.417969 11.726562 "/>
<path style=" stroke:none;fill-rule:nonzero;fill:rgb(0.392157%,17.647059%,41.960784%);fill-opacity:1;" d="M 25.34375 4.441406 C 25.910156 3.621094 26.566406 2.933594 27.285156 2.3125 C 27.347656 2.257812 27.414062 2.199219 27.5 2.199219 C 27.96875 2.199219 28.4375 2.246094 28.890625 2.351562 C 29.035156 2.386719 28.984375 2.460938 28.96875 2.535156 C 28.769531 3.453125 28.570312 4.363281 28.378906 5.28125 C 28.351562 5.40625 28.347656 5.507812 28.171875 5.445312 C 27.242188 5.117188 26.316406 4.785156 25.34375 4.441406 Z M 25.34375 4.441406 "/>
<path style=" stroke:none;fill-rule:nonzero;fill:rgb(0.392157%,17.647059%,41.960784%);fill-opacity:1;" d="M 32.589844 14.730469 C 32.007812 14.558594 31.46875 14.398438 30.933594 14.242188 C 30.828125 14.214844 30.804688 14.164062 30.855469 14.054688 C 31.246094 13.21875 31.558594 12.351562 31.804688 11.460938 C 31.847656 11.332031 31.90625 11.332031 32.007812 11.359375 C 32.714844 11.5625 33.425781 11.773438 34.132812 11.964844 C 34.289062 12.011719 34.300781 12.078125 34.25 12.210938 C 33.898438 13.109375 33.40625 13.917969 32.753906 14.628906 C 32.699219 14.695312 32.640625 14.753906 32.589844 14.730469 Z M 32.589844 14.730469 "/>
<path style=" stroke:none;fill-rule:nonzero;fill:rgb(0.392157%,17.647059%,41.960784%);fill-opacity:1;" d="M 32.324219 7.78125 C 33.070312 8.027344 33.804688 8.269531 34.539062 8.503906 C 34.644531 8.539062 34.648438 8.613281 34.660156 8.691406 C 34.761719 9.425781 34.734375 10.160156 34.613281 10.890625 C 34.597656 11.003906 34.558594 11.074219 34.410156 11.035156 C 33.675781 10.832031 32.949219 10.636719 32.210938 10.449219 C 32.097656 10.421875 32.058594 10.371094 32.085938 10.25 C 32.246094 9.441406 32.332031 8.628906 32.324219 7.78125 Z M 32.324219 7.78125 "/>
<path style=" stroke:none;fill-rule:nonzero;fill:rgb(0.392157%,17.647059%,41.960784%);fill-opacity:1;" d="M 31.492188 6.613281 C 30.714844 6.335938 29.949219 6.0625 29.191406 5.796875 C 29.066406 5.75 29.066406 5.695312 29.089844 5.59375 C 29.289062 4.648438 29.492188 3.703125 29.6875 2.761719 C 29.722656 2.601562 29.792969 2.589844 29.933594 2.636719 C 30.332031 2.765625 30.625 2.964844 30.777344 3.414062 C 31.101562 4.351562 31.359375 5.296875 31.492188 6.273438 C 31.507812 6.378906 31.492188 6.484375 31.492188 6.613281 Z M 31.492188 6.613281 "/>
<path style=" stroke:none;fill-rule:nonzero;fill:rgb(0.392157%,17.647059%,41.960784%);fill-opacity:1;" d="M 27.472656 16.976562 C 26.65625 16.976562 26.65625 16.976562 26.808594 16.246094 C 26.945312 15.601562 27.101562 14.960938 27.230469 14.304688 C 27.265625 14.121094 27.308594 14.082031 27.484375 14.136719 C 28.144531 14.347656 28.816406 14.554688 29.480469 14.757812 C 29.613281 14.796875 29.640625 14.851562 29.5625 14.976562 C 29.21875 15.601562 28.835938 16.207031 28.445312 16.800781 C 28.390625 16.882812 28.328125 16.898438 28.246094 16.917969 C 27.964844 16.976562 27.6875 16.976562 27.472656 16.976562 Z M 27.472656 16.976562 "/>
<path style=" stroke:none;fill-rule:nonzero;fill:rgb(0.392157%,17.647059%,41.960784%);fill-opacity:1;" d="M 34.472656 7.660156 C 33.75 7.402344 33.097656 7.167969 32.4375 6.945312 C 32.210938 6.863281 32.277344 6.667969 32.261719 6.523438 C 32.191406 5.660156 32 4.824219 31.75 3.996094 C 31.714844 3.851562 31.628906 3.730469 31.636719 3.546875 C 33.042969 4.585938 33.972656 5.925781 34.472656 7.660156 Z M 34.472656 7.660156 "/>
<path style=" stroke:none;fill-rule:nonzero;fill:rgb(0.392157%,17.647059%,41.960784%);fill-opacity:1;" d="M 20.460938 11.960938 C 21.09375 12.164062 21.667969 12.339844 22.246094 12.515625 C 22.351562 12.550781 22.429688 12.574219 22.433594 12.714844 C 22.460938 13.539062 22.546875 14.363281 22.683594 15.25 C 21.625 14.335938 20.914062 13.261719 20.460938 11.960938 Z M 20.460938 11.960938 "/>
<path style=" stroke:none;fill-rule:nonzero;fill:rgb(0.392157%,17.647059%,41.960784%);fill-opacity:1;" d="M 26.242188 2.316406 C 25.675781 2.875 25.171875 3.46875 24.734375 4.109375 C 24.667969 4.207031 24.613281 4.175781 24.527344 4.148438 C 24.054688 3.980469 23.582031 3.820312 23.105469 3.65625 C 23.515625 3.121094 25.441406 2.316406 26.242188 2.316406 Z M 26.242188 2.316406 "/>
<path style=" stroke:none;fill-rule:nonzero;fill:rgb(0.392157%,17.647059%,41.960784%);fill-opacity:1;" d="M 31.804688 15.484375 C 31.078125 16.039062 30.324219 16.417969 29.445312 16.6875 C 29.757812 16.140625 30.039062 15.632812 30.332031 15.136719 C 30.394531 15.027344 30.492188 15.085938 30.578125 15.109375 C 30.96875 15.230469 31.359375 15.351562 31.804688 15.484375 Z M 31.804688 15.484375 "/>
<path style=" stroke:none;fill-rule:nonzero;fill:rgb(90.196078%,14.901961%,16.470588%);fill-opacity:1;" d="M 38.207031 39.378906 C 38.621094 39.765625 39.007812 40.179688 39.328125 40.660156 C 39.679688 41.183594 39.875 41.757812 39.953125 42.375 C 40.070312 43.296875 39.875 44.171875 39.433594 44.980469 C 39.238281 45.328125 38.945312 45.621094 38.695312 45.941406 C 38.609375 45.949219 38.53125 45.941406 38.460938 46.011719 C 38.027344 46.46875 37.476562 46.761719 36.933594 47.050781 C 36.253906 47.414062 35.519531 47.65625 34.78125 47.699219 C 33.648438 47.757812 32.511719 47.847656 31.402344 47.472656 C 30.785156 47.269531 30.15625 47.089844 29.605469 46.726562 C 28.929688 46.28125 28.222656 45.894531 27.597656 45.359375 C 27.121094 44.949219 26.636719 44.554688 26.183594 44.121094 C 26.035156 43.992188 25.980469 43.78125 25.8125 43.679688 C 25.316406 43.390625 25.003906 42.898438 24.621094 42.496094 C 24.324219 42.183594 24.074219 41.8125 23.800781 41.457031 C 23.476562 41.046875 23.136719 40.648438 22.898438 40.179688 C 22.796875 39.980469 22.714844 39.757812 22.585938 39.582031 C 22.277344 39.15625 22.117188 38.65625 21.929688 38.175781 C 21.875 38.03125 21.832031 37.90625 21.679688 37.855469 C 21.207031 36.246094 21.25 34.640625 21.628906 33.011719 C 21.988281 31.5 22.601562 30.109375 23.300781 28.746094 C 23.332031 28.738281 23.375 28.730469 23.382812 28.714844 C 23.617188 28.234375 23.945312 27.804688 24.214844 27.339844 C 24.390625 27.035156 24.683594 26.785156 24.707031 26.394531 C 24.71875 26.386719 24.726562 26.386719 24.726562 26.367188 C 24.796875 26.335938 24.855469 26.296875 24.863281 26.210938 C 24.863281 26.210938 24.875 26.21875 24.875 26.21875 C 25.035156 26.222656 25.117188 26.105469 25.195312 26 C 25.449219 25.628906 25.722656 25.265625 26.011719 24.917969 C 26.558594 24.265625 27.070312 23.585938 27.628906 22.933594 C 27.910156 22.601562 28.238281 22.304688 28.542969 21.992188 C 28.636719 21.898438 28.71875 21.8125 28.699219 21.667969 C 28.699219 21.667969 28.691406 21.65625 28.691406 21.65625 C 28.730469 21.644531 28.78125 21.648438 28.808594 21.628906 C 29.253906 21.191406 29.789062 20.859375 30.324219 20.550781 C 31.011719 20.160156 31.757812 19.949219 32.527344 19.886719 C 33.378906 19.8125 34.234375 19.855469 35.050781 20.21875 C 35.238281 20.300781 35.402344 20.429688 35.582031 20.488281 C 36.292969 20.730469 36.746094 21.289062 37.210938 21.816406 C 37.632812 22.285156 37.878906 22.871094 38.03125 23.476562 C 38.140625 23.917969 38.207031 24.382812 38.175781 24.835938 C 38.171875 25.085938 38.113281 25.351562 38.09375 25.605469 C 38.089844 25.71875 38.078125 25.828125 38.035156 25.941406 C 37.890625 26.378906 37.707031 26.796875 37.511719 27.21875 C 37.203125 27.855469 36.738281 28.332031 36.214844 28.726562 C 35.269531 29.421875 34.179688 29.730469 33.003906 29.765625 C 32.417969 29.785156 31.828125 29.777344 31.230469 29.867188 C 30.3125 29.996094 29.402344 30.15625 28.515625 30.414062 C 28.230469 30.492188 27.921875 30.554688 27.691406 30.777344 C 27.179688 30.820312 26.769531 31.140625 26.347656 31.378906 C 25.828125 31.675781 25.367188 32.089844 24.972656 32.578125 C 24.492188 33.183594 24.191406 33.882812 24.09375 34.640625 C 24.015625 35.246094 24.269531 35.789062 24.652344 36.28125 C 25.175781 36.960938 25.910156 37.324219 26.671875 37.566406 C 27.640625 37.882812 28.671875 38.015625 29.675781 38.070312 C 30.5625 38.125 31.449219 38.128906 32.351562 38.023438 C 33.527344 37.871094 34.71875 37.941406 35.867188 38.265625 C 36.527344 38.453125 37.1875 38.722656 37.742188 39.175781 C 37.863281 39.265625 38.015625 39.382812 38.207031 39.378906 Z M 38.207031 39.378906 "/>
</g>
</svg>
